<svg fill="none" height="120" viewBox="0 0 120 120" width="120" xmlns="http://www.w3.org/2000/svg"><g clip-rule="evenodd" fill-rule="evenodd"><path d="m24.13 49.3102c-.1463.1458-5.2935.2971-11.4383.3355-7.90556.0499-11.41904.2506-12.015216.6869-.777243.5684-.813558 2.7317-.466547 27.9732.318261 23.1602.490757 27.4722 1.124253 28.1052.65165.652 4.56309.708 30.32261.433 16.2656-.173 29.8943-.417 30.2857-.541 1.2806-.408-.116-55.0302-1.441-56.3567-.4101-.4111-5.7943-.6285-18.3436-.7415-9.7698-.0882-17.8822-.0408-18.0279.1054z" fill="#3080ff"/><path d="m19.3666 13.263c-3.0954.4938-8.5129 3.1362-10.70439 5.2218-2.35896 2.244-4.0688 7.8456-4.26954 13.9834-.20074 6.1564.54422 17.2143 1.21504 18.0314.72429.8822 1.7522.7853 2.80231-.2648.81205-.812.85593-1.5035.47008-7.4395-.77018-11.863.18259-18.727 3.1735-22.8558 3.2951-4.5485 12.5302-6.8374 22.9991-5.7 7.4239.807 10.7411 3.0167 13.3997 8.9254 1.0305 2.2904 1.1449 3.5034 1.4022 14.8514l.2799 12.3572h1.7568c1.6538 0 1.7779-.1185 2.1143-2.0175.575-3.2411.4681-18.1152-.1508-21.033-1.4319-6.7465-5.2879-10.7467-12.615-13.086-2.5324-.8085-4.9146-1.0617-11.2803-1.2004-4.4385-.0969-9.2054.0055-10.5929.2264zm46.4464 3.4999c-.8211 1.329-4.33 11.0292-4.33 11.9709 0 .7959.4534 1.272 1.5882 1.6674 2.2652.7899 2.3469.7561 3.2432-1.3376 1.2539-2.9279 3.7379-9.8989 3.7404-10.4986.0015-.295-.7994-.9195-1.7799-1.387-2.0639-.984-2.1058-.9911-2.4619-.4151zm-42.1774 5.0397c-4.8576 1.0466-8.2334 3.8217-9.5569 7.8572-.7384 2.2515-.8721 19.7983-.1564 20.514.2341.234 1.1011.2446 1.9268.0237l1.501-.4015.0857-7.2771c.1271-10.7897.4686-13.1506 2.2566-15.6191 2.243-3.0963 5.1381-4.2362 10.7715-4.2408 2.7311-.002 4.9923.2507 5.6767.6346.6254.351 1.8672 2.0482 2.7599 3.7717l1.6226 3.1332.2663 9.9205c.1463 5.4564.4409 10.0946.6547 10.3075.2134.2128 1.0078.1684 1.7653-.0984l1.377-.4852v-10.0744c0-9.7324-.0424-10.1576-1.2519-12.5257-1.4445-2.828-2.9057-4.1253-5.4896-4.8733-2.3655-.6849-11.8957-1.0652-14.2093-.5669zm51.0812 4.2348c-.86 1.1787-2.0902 2.7155-2.7332 3.4141-2.4417 2.653-5.9613 7.5006-5.9613 8.2112 0 .7188 1.4194 1.3417 3.0893 1.3553.7632.0065 11.8352-11.7923 11.752-12.5237-.0555-.4887-3.2926-2.6005-3.9861-2.6005-.3283 0-1.3003.9648-2.1607 2.1436zm.8887 16.5117c-7.3316 2.7307-8.5744 3.282-8.5744 3.803 0 .289.638.9024 1.4178 1.3629 1.2811.757 1.7305.7681 4.6655.1165 1.786-.397 5.0069-1.0976 7.1566-1.557 2.2026-.4711 3.9089-1.0966 3.9089-1.433 0-.9235-3.804-4.0032-4.6322-3.7505-.0878.0267-1.8617.6829-3.9422 1.4581z" fill="#f7f5f2"/><path d="m26.9395 62.2642c-2.7206.6769-5.1466 2.4175-5.9224 4.2494-.3525.8322-.6148 2.8603-.5825 4.5076.0509 2.5864.2436 3.1529 1.4153 4.1611.7459.6416 1.7133 1.1666 2.1491 1.1666.9684 0 .8453 1.4173-1.0879 12.557-.9473 5.4558-1.1838 7.8667-.7959 8.1063.9502.5871 13.776.5563 16.3311-.0398 1.3387-.3122 2.5613-.8978 2.7156-1.3008.2779-.7243.0751-2.132-1.8753-13.018-1.2503-6.979-1.2508-7.672-.0075-8.0665 1.2639-.4009 2.2671-3.6179 1.8394-5.8976-.3742-1.9948-2.4951-4.4865-4.8601-5.7096-2.0266-1.0476-6.5781-1.3971-9.3189-.7157zm6.0248 3.6633c1.3613 2.3227 1.6074 4.4562.7691 6.6608-.5411 1.4244-.5215 1.5747 1.782 13.5506 1.8001 9.3556 1.9071 8.8719-1.9625 8.8719-1.7684 0-3.9579.1483-4.8657.3299l-1.6498.3304.3626-3.2306c.1992-1.7764.6638-5.0457 1.032-7.265 1.4934-9.0031 1.4944-8.9728-.4807-11.3369-1.4783-1.7698-1.7729-2.5163-1.7638-4.4728.0116-2.4306.8726-4.0012 2.763-5.0407 1.8107-.9961 2.6989-.6416 4.0138 1.6024z" fill="#1e1919"/></g></svg>